<svg id="Layer_1" data-name="Layer 1" xmlns="http://www.w3.org/2000/svg" xmlns:xlink="http://www.w3.org/1999/xlink" viewBox="0 0 1920 565"><defs><style>.cls-1{fill:url(#linear-gradient);}.cls-2{fill:#ff7bac;opacity:0.31;}.cls-3{fill:url(#linear-gradient-2);}.cls-4{font-size:206px;fill:#fff;font-family:AdlantaRegular, Adlanta;}.cls-5{font-family:BoteraTFE-RegularStencil, Botera TFE;}</style><linearGradient id="linear-gradient" x1="859.19" y1="773.46" x2="859.19" y2="770.78" gradientUnits="userSpaceOnUse"><stop offset="0.44" stop-color="#3d1245"/><stop offset="0.58" stop-color="#34295e" stop-opacity="0.89"/><stop offset="0.8" stop-color="#1a67a2" stop-opacity="0.6"/><stop offset="0.99" stop-color="#00a8e9" stop-opacity="0.3"/></linearGradient><linearGradient id="linear-gradient-2" x1="1025.19" y1="-1086.9" x2="1025.19" y2="577.77" gradientUnits="userSpaceOnUse"><stop offset="0.66" stop-color="#3d1245"/><stop offset="0.7" stop-color="#46174b"/><stop offset="0.78" stop-color="#60255a"/><stop offset="0.87" stop-color="#893b73"/><stop offset="0.98" stop-color="#c25995"/><stop offset="0.99" stop-color="#c95d99"/></linearGradient></defs><title>github_header</title><path class="cls-1" d="M-259,585c122,47.85,269-202.9,582-175,147.51,13.15,198.83,76.32,388,72,152.39-3.48,162.42-45.47,322-60,202.72-18.46,271.53,41.56,499,63,104.62,9.86,260.24,13.21,456-26,43.58-125.62,219.18-673.21-52-1077-342-509.21-1309.89-663.86-2193-86C-435.94,290.9-363.17,544.15-259,585Z"/><path class="cls-2" d="M-484-456c44,395.91,62.91,721.13,72,937C302.08,531.92,661.39,443.66,858,344c46.76-23.7,127.25-69.81,244-77,208.48-12.84,286.73,113.55,601,208,176.73,53.11,298.79,89.8,412,36,45.06-21.41,168.3-95,232-417,25.46-128.71,184.35-932-290-1450-723.94-790.57-2390-334.9-2590,249C-570.15-998.52-537.87-940.59-484-456Z"/><path class="cls-3" d="M-93,569C29,616.85,176,366.1,489,394c147.51,13.15,198.83,76.32,388,72,152.39-3.48,162.42-45.47,322-60,202.72-18.46,271.53,41.56,499,63,104.62,9.86,260.24,13.21,456-26,43.58-125.62,219.18-673.21-52-1077C1760-1143.21,792.11-1297.86-91-720-269.94,274.9-197.17,528.15-93,569Z"/><text class="cls-4" transform="translate(379.57 265.09)">Hey! I<tspan class="cls-5" x="573.29" y="0">’</tspan><tspan x="614.69" y="0">m Ben</tspan></text></svg>