<svg id="Layer_1" data-name="Layer 1" xmlns="http://www.w3.org/2000/svg" xmlns:xlink="http://www.w3.org/1999/xlink" viewBox="0 0 1920 724"><defs><style>.cls-1{fill:url(#linear-gradient);}.cls-2{fill:#ff7bac;opacity:0.31;}.cls-3{fill:url(#linear-gradient-2);}.cls-4{font-size:206px;fill:#fff;font-family:AdlantaRegular, Adlanta;}.cls-5{font-family:BoteraTFE-RegularStencil, Botera TFE;}</style><linearGradient id="linear-gradient" x1="843.19" y1="939.46" x2="843.19" y2="936.78" gradientUnits="userSpaceOnUse"><stop offset="0.44" stop-color="#3d1245"/><stop offset="0.58" stop-color="#34295e" stop-opacity="0.89"/><stop offset="0.8" stop-color="#1a67a2" stop-opacity="0.6"/><stop offset="0.99" stop-color="#00a8e9" stop-opacity="0.3"/></linearGradient><linearGradient id="linear-gradient-2" x1="1009.19" y1="-920.9" x2="1009.19" y2="743.77" gradientUnits="userSpaceOnUse"><stop offset="0.57" stop-color="#3d1245"/><stop offset="0.62" stop-color="#46174b"/><stop offset="0.72" stop-color="#60255a"/><stop offset="0.84" stop-color="#893b73"/><stop offset="0.98" stop-color="#c25995"/><stop offset="0.99" stop-color="#c95d99"/></linearGradient></defs><title>github_header</title><path class="cls-1" d="M-275,751C-153,798.85-6,548.1,307,576c147.51,13.15,198.83,76.32,388,72,152.39-3.48,162.42-45.47,322-60,202.72-18.46,271.53,41.56,499,63,104.62,9.86,260.24,13.21,456-26,43.58-125.62,219.18-673.21-52-1077C1578-961.21,610.11-1115.86-273-538-451.94,456.9-379.17,710.15-275,751Z"/><path class="cls-2" d="M-500-290c44,395.91,62.91,721.13,72,937C286.08,697.92,645.39,609.66,842,510c46.76-23.7,127.25-69.81,244-77,208.48-12.84,286.73,113.55,601,208,176.73,53.11,298.79,89.8,412,36,45.06-21.41,168.3-95,232-417,25.46-128.71,184.35-932-290-1450C1317.06-1980.57-349-1524.9-549-941-586.15-832.52-553.87-774.59-500-290Z"/><path class="cls-3" d="M-109,735C13,782.85,160,532.1,473,560c147.51,13.15,198.83,76.32,388,72,152.39-3.48,162.42-45.47,322-60,202.72-18.46,271.53,41.56,499,63,104.62,9.86,260.24,13.21,456-26,43.58-125.62,219.18-673.21-52-1077C1744-977.21,776.11-1131.86-107-554-285.94,440.9-213.17,694.15-109,735Z"/><text class="cls-4" transform="translate(366.57 377.09)">Hey! I<tspan class="cls-5" x="573.29" y="0">’</tspan><tspan x="614.69" y="0">m Ben</tspan></text></svg>